#N canvas 623 31 951 1015 10;
#X obj 4 480 dac~;
#X obj 4 68 pack f f;
#N canvas 733 172 450 300 pack 0;
#X obj 14 32 unpack f f;
#X obj 112 83 sel 0;
#X obj 14 163 pack f s f, f 12;
#X msg 112 119 symbol noteoff;
#X msg 226 119 symbol noteon;
#X msg 14 198 \$2 \$1 \$3;
#X obj 14 9 inlet;
#X obj 14 248 outlet;
#X obj 226 163 list;
#X obj 226 192 outlet;
#X connect 0 0 2 0;
#X connect 0 1 1 0;
#X connect 0 1 2 2;
#X connect 1 0 3 0;
#X connect 1 1 4 0;
#X connect 2 0 5 0;
#X connect 3 0 2 1;
#X connect 4 0 2 1;
#X connect 5 0 7 0;
#X connect 5 0 8 0;
#X connect 6 0 0 0;
#X connect 8 0 9 0;
#X restore 4 117 pd pack;
#X obj 4 9 notein, f 9;
#X obj 301 370 route inst;
#X obj 301 393 print;
#X text 291 277 Get all instruments installed;
#X msg 529 181 noteon <midinote> <velocity> <cents>;
#X msg 120 232 noteon 72 127 50;
#X msg 42 173 noteon 72 127 0;
#X listbox 43 142 15 0 0 0 - - - 12;
#X msg 238 278 insts;
#X msg 529 212 noteoff <midinote> <velocity>;
#X obj 567 441 tgl 25 0 empty empty empty 17 7 0 10 #e4e4e4 #000000 #373737 0 1;
#X msg 567 494 \; pd dsp \$1;
#X obj 77 9 else/keyboard 16 80 2 4 0 0 empty empty;
#N canvas 0 50 450 300 (subpatch) 0;
#X obj 10 275 outlet;
#X obj 154 134 keyup;
#X obj 9 5 key;
#X obj 10 127 list;
#X obj 9 34 t f b, f 16;
#X obj 82 63 expr random(30\\\, 90);
#X msg 154 163 noteoff \$1 0;
#X msg 10 156 noteon \$1 \$2;
#X connect 1 0 6 0;
#X connect 2 0 4 0;
#X connect 3 0 7 0;
#X connect 4 0 3 0;
#X connect 4 1 5 0;
#X connect 5 0 3 1;
#X connect 6 0 0 0;
#X connect 7 0 0 0;
#X restore 18 173 pd;
#X msg 266 309 reset;
#X msg 226 231 noteon 56 127 0;
#X msg 55 232 reverb \$1;
#X obj 55 201 tgl 18 0 empty empty empty 0 -9 0 10 #fcfcfc #000000 #000000 0 1;
#X obj 66 476 else/vu~;
#X obj 67 503 vu 14 80 empty empty -1 -9 0 10 #404040 #000000 0 0;
#X obj 328 200 nbx 5 16 -1e+37 1e+37 0 0 empty empty empty 0 -9 0 10 #fcfcfc #000000 #000000 0 256;
#X msg 328 231 art \$1;
#X obj 4 421 *~ 8;
#X obj 499 349 musesampler~, f 50;
#X msg 499 287 set 165;
#X obj 26 382 nbx 4 18 -1e+37 1e+37 0 0 empty empty empty 0 -8 0 10 #191919 #e1e1e1 #e1e1e1 0 256;
#X text 783 180 Cents is opcional;
#X msg 175 181 noteon 65 127 -100;
#X obj 4 349 musesampler~ -inst 19, f 50;
#X connect 1 0 2 0;
#X connect 2 0 31 0;
#X connect 2 1 10 0;
#X connect 3 0 1 0;
#X connect 3 1 1 1;
#X connect 4 0 5 0;
#X connect 8 0 31 0;
#X connect 9 0 31 0;
#X connect 11 0 31 0;
#X connect 13 0 14 0;
#X connect 15 0 2 0;
#X connect 17 0 31 0;
#X connect 18 0 31 0;
#X connect 19 0 31 0;
#X connect 20 0 19 0;
#X connect 21 0 22 0;
#X connect 23 0 24 0;
#X connect 24 0 31 0;
#X connect 25 0 0 0;
#X connect 25 0 0 1;
#X connect 25 0 21 0;
#X connect 27 0 26 0;
#X connect 28 0 25 1;
#X connect 30 0 31 0;
#X connect 31 0 25 0;
#X connect 31 2 4 0;
